<svg width="19" height="20" viewBox="0 0 19 20" fill="none" xmlns="http://www.w3.org/2000/svg"><path d="M13.584 5.756c-.972-.93-2.208-1.402-3.584-1.402-2.442 0-4.509 1.649-5.246 3.865A5.636 5.636 0 004.46 10c0 .618.107 1.219.294 1.781.737 2.216 2.804 3.865 5.246 3.865 1.261 0 2.335-.332 3.175-.895a4.313 4.313 0 001.87-2.83H10V8.296h8.83c.11.614.17 1.253.17 1.918 0 2.855-1.023 5.259-2.795 6.89-1.552 1.432-3.674 2.272-6.205 2.272A9.371 9.371 0 01.625 10 9.371 9.371 0 0110 .625c2.527 0 4.65.929 6.273 2.442l-2.69 2.689z" fill="#818181"/></svg>